<?xml version="1.0" standalone="no"?><svg xmlns="http://www.w3.org/2000/svg" viewBox="0 0 1440 320"><path fill="#d7edff" fill-opacity="1" d="M0,32L20,37.3C40,43,80,53,120,80C160,107,200,149,240,149.3C280,149,320,107,360,112C400,117,440,171,480,181.3C520,192,560,160,600,128C640,96,680,64,720,80C760,96,800,160,840,181.3C880,203,920,181,960,176C1000,171,1040,181,1080,176C1120,171,1160,149,1200,154.7C1240,160,1280,192,1320,176C1360,160,1400,96,1420,64L1440,32L1440,0L1420,0C1400,0,1360,0,1320,0C1280,0,1240,0,1200,0C1160,0,1120,0,1080,0C1040,0,1000,0,960,0C920,0,880,0,840,0C800,0,760,0,720,0C680,0,640,0,600,0C560,0,520,0,480,0C440,0,400,0,360,0C320,0,280,0,240,0C200,0,160,0,120,0C80,0,40,0,20,0L0,0Z"></path></svg>